<svg width="836" height="222" viewBox="0 0 836 222" fill="none" xmlns="http://www.w3.org/2000/svg">
<circle cx="111" cy="111" r="105" stroke="#1F7551" stroke-width="11"/>
<path d="M270.227 158V64.9091H328.591V77H284.273V105.364H325.545V117.409H284.273V145.909H329.136V158H270.227ZM375.67 159.409C368.913 159.409 363.095 157.879 358.216 154.818C353.367 151.727 349.64 147.47 347.034 142.045C344.428 136.621 343.125 130.409 343.125 123.409C343.125 116.318 344.458 110.061 347.125 104.636C349.792 99.1818 353.549 94.9242 358.398 91.8636C363.246 88.803 368.958 87.2727 375.534 87.2727C380.837 87.2727 385.564 88.2576 389.716 90.2273C393.867 92.1667 397.216 94.8939 399.761 98.4091C402.337 101.924 403.867 106.03 404.352 110.727H391.125C390.398 107.455 388.731 104.636 386.125 102.273C383.549 99.9091 380.095 98.7273 375.761 98.7273C371.973 98.7273 368.655 99.7273 365.807 101.727C362.989 103.697 360.792 106.515 359.216 110.182C357.64 113.818 356.852 118.121 356.852 123.091C356.852 128.182 357.625 132.576 359.17 136.273C360.716 139.97 362.898 142.833 365.716 144.864C368.564 146.894 371.913 147.909 375.761 147.909C378.337 147.909 380.67 147.439 382.761 146.5C384.883 145.53 386.655 144.152 388.08 142.364C389.534 140.576 390.549 138.424 391.125 135.909H404.352C403.867 140.424 402.398 144.455 399.943 148C397.489 151.545 394.201 154.333 390.08 156.364C385.989 158.394 381.186 159.409 375.67 159.409ZM432.477 116.545V158H418.886V64.9091H432.295V99.5455H433.159C434.795 95.7879 437.295 92.803 440.659 90.5909C444.023 88.3788 448.417 87.2727 453.841 87.2727C458.629 87.2727 462.811 88.2576 466.386 90.2273C469.992 92.197 472.78 95.1364 474.75 99.0455C476.75 102.924 477.75 107.773 477.75 113.591V158H464.159V115.227C464.159 110.106 462.841 106.136 460.205 103.318C457.568 100.47 453.902 99.0455 449.205 99.0455C445.992 99.0455 443.114 99.7273 440.568 101.091C438.053 102.455 436.068 104.455 434.614 107.091C433.189 109.697 432.477 112.848 432.477 116.545ZM525.295 159.409C518.75 159.409 513.038 157.909 508.159 154.909C503.28 151.909 499.492 147.712 496.795 142.318C494.098 136.924 492.75 130.621 492.75 123.409C492.75 116.167 494.098 109.833 496.795 104.409C499.492 98.9848 503.28 94.7727 508.159 91.7727C513.038 88.7727 518.75 87.2727 525.295 87.2727C531.841 87.2727 537.553 88.7727 542.432 91.7727C547.311 94.7727 551.098 98.9848 553.795 104.409C556.492 109.833 557.841 116.167 557.841 123.409C557.841 130.621 556.492 136.924 553.795 142.318C551.098 147.712 547.311 151.909 542.432 154.909C537.553 157.909 531.841 159.409 525.295 159.409ZM525.341 148C529.583 148 533.098 146.879 535.886 144.636C538.674 142.394 540.735 139.409 542.068 135.682C543.432 131.955 544.114 127.848 544.114 123.364C544.114 118.909 543.432 114.818 542.068 111.091C540.735 107.333 538.674 104.318 535.886 102.045C533.098 99.7727 529.583 98.6364 525.341 98.6364C521.068 98.6364 517.523 99.7727 514.705 102.045C511.917 104.318 509.841 107.333 508.477 111.091C507.144 114.818 506.477 118.909 506.477 123.364C506.477 127.848 507.144 131.955 508.477 135.682C509.841 139.409 511.917 142.394 514.705 144.636C517.523 146.879 521.068 148 525.341 148ZM573.011 158V88.1818H586.057V99.5455H586.92C588.375 95.697 590.754 92.697 594.057 90.5455C597.36 88.3636 601.314 87.2727 605.92 87.2727C610.587 87.2727 614.496 88.3636 617.648 90.5455C620.83 92.7273 623.178 95.7273 624.693 99.5455H625.42C627.087 95.8182 629.739 92.8485 633.375 90.6364C637.011 88.3939 641.345 87.2727 646.375 87.2727C652.708 87.2727 657.875 89.2576 661.875 93.2273C665.905 97.197 667.92 103.182 667.92 111.182V158H654.33V112.455C654.33 107.727 653.042 104.303 650.466 102.182C647.89 100.061 644.814 99 641.239 99C636.814 99 633.375 100.364 630.92 103.091C628.466 105.788 627.239 109.258 627.239 113.5V158H613.693V111.591C613.693 107.803 612.511 104.758 610.148 102.455C607.784 100.152 604.708 99 600.92 99C598.345 99 595.966 99.6818 593.784 101.045C591.633 102.379 589.89 104.242 588.557 106.636C587.254 109.03 586.602 111.803 586.602 114.955V158H573.011ZM715.545 159.409C709 159.409 703.288 157.909 698.409 154.909C693.53 151.909 689.742 147.712 687.045 142.318C684.348 136.924 683 130.621 683 123.409C683 116.167 684.348 109.833 687.045 104.409C689.742 98.9848 693.53 94.7727 698.409 91.7727C703.288 88.7727 709 87.2727 715.545 87.2727C722.091 87.2727 727.803 88.7727 732.682 91.7727C737.561 94.7727 741.348 98.9848 744.045 104.409C746.742 109.833 748.091 116.167 748.091 123.409C748.091 130.621 746.742 136.924 744.045 142.318C741.348 147.712 737.561 151.909 732.682 154.909C727.803 157.909 722.091 159.409 715.545 159.409ZM715.591 148C719.833 148 723.348 146.879 726.136 144.636C728.924 142.394 730.985 139.409 732.318 135.682C733.682 131.955 734.364 127.848 734.364 123.364C734.364 118.909 733.682 114.818 732.318 111.091C730.985 107.333 728.924 104.318 726.136 102.045C723.348 99.7727 719.833 98.6364 715.591 98.6364C711.318 98.6364 707.773 99.7727 704.955 102.045C702.167 104.318 700.091 107.333 698.727 111.091C697.394 114.818 696.727 118.909 696.727 123.364C696.727 127.848 697.394 131.955 698.727 135.682C700.091 139.409 702.167 142.394 704.955 144.636C707.773 146.879 711.318 148 715.591 148ZM763.261 158V88.1818H776.398V99.2727H777.125C778.398 95.5151 780.64 92.5606 783.852 90.4091C787.095 88.2273 790.761 87.1364 794.852 87.1364C795.701 87.1364 796.701 87.1667 797.852 87.2273C799.034 87.2879 799.958 87.3636 800.625 87.4545V100.455C800.08 100.303 799.11 100.136 797.716 99.9545C796.322 99.7424 794.928 99.6364 793.534 99.6364C790.322 99.6364 787.458 100.318 784.943 101.682C782.458 103.015 780.489 104.879 779.034 107.273C777.58 109.636 776.852 112.333 776.852 115.364V158H763.261ZM812.386 158V88.1818H825.977V158H812.386ZM819.25 77.4091C816.886 77.4091 814.856 76.6212 813.159 75.0454C811.492 73.4394 810.659 71.5303 810.659 69.3182C810.659 67.0758 811.492 65.1667 813.159 63.5909C814.856 61.9848 816.886 61.1818 819.25 61.1818C821.614 61.1818 823.629 61.9848 825.295 63.5909C826.992 65.1667 827.841 67.0758 827.841 69.3182C827.841 71.5303 826.992 73.4394 825.295 75.0454C823.629 76.6212 821.614 77.4091 819.25 77.4091Z" fill="#1F7551"/>
<path d="M54 167.844L167.844 54" stroke="#1F7551" stroke-width="10" stroke-miterlimit="2.61313" stroke-linecap="round"/>
<path d="M54 124.357L124.357 54" stroke="#1F7551" stroke-width="10" stroke-miterlimit="2.61313" stroke-linecap="round"/>
<path d="M133 176.487L176.487 133" stroke="#1F7551" stroke-width="10" stroke-miterlimit="2.61313" stroke-linecap="round"/>
<path d="M98 168.357L168.357 98" stroke="#1F7551" stroke-width="10" stroke-miterlimit="2.61313" stroke-linecap="round"/>
<path d="M46 89.4871L89.4871 46" stroke="#1F7551" stroke-width="10" stroke-miterlimit="2.61313" stroke-linecap="round"/>
</svg>
