<svg width="1087" height="223" viewBox="0 0 1087 223" fill="none" xmlns="http://www.w3.org/2000/svg">
<circle cx="111" cy="111" r="105" stroke="#1F7551" stroke-width="11"/>
<path d="M274.702 178V44.1818H358.599V61.5625H294.892V102.335H354.222V119.651H294.892V160.619H359.384V178H274.702ZM426.276 180.026C416.562 180.026 408.199 177.826 401.185 173.426C394.216 168.983 388.858 162.863 385.112 155.065C381.365 147.268 379.492 138.338 379.492 128.276C379.492 118.082 381.409 109.087 385.242 101.29C389.076 93.4489 394.477 87.3286 401.447 82.929C408.416 78.5294 416.628 76.3295 426.08 76.3295C433.703 76.3295 440.499 77.7453 446.467 80.5767C452.434 83.3646 457.248 87.285 460.907 92.3381C464.61 97.3911 466.809 103.294 467.506 110.045H448.492C447.447 105.341 445.051 101.29 441.305 97.892C437.602 94.4943 432.636 92.7955 426.407 92.7955C420.962 92.7955 416.192 94.233 412.097 97.108C408.046 99.9394 404.888 103.991 402.623 109.261C400.358 114.489 399.225 120.674 399.225 127.818C399.225 135.136 400.336 141.453 402.558 146.767C404.779 152.081 407.915 156.198 411.967 159.116C416.061 162.035 420.875 163.494 426.407 163.494C430.11 163.494 433.464 162.819 436.469 161.469C439.519 160.075 442.067 158.093 444.114 155.523C446.205 152.953 447.665 149.86 448.492 146.244H467.506C466.809 152.735 464.697 158.528 461.168 163.625C457.64 168.722 452.914 172.729 446.989 175.648C441.109 178.566 434.204 180.026 426.276 180.026ZM507.936 118.409V178H488.399V44.1818H507.675V93.9716H508.916C511.268 88.5701 514.862 84.2794 519.697 81.0994C524.533 77.9195 530.849 76.3295 538.646 76.3295C545.529 76.3295 551.54 77.7453 556.68 80.5767C561.864 83.4081 565.872 87.6335 568.703 93.2528C571.578 98.8286 573.016 105.798 573.016 114.162V178H553.479V116.514C553.479 109.152 551.584 103.446 547.794 99.3949C544.004 95.3002 538.733 93.2528 531.982 93.2528C527.364 93.2528 523.226 94.233 519.567 96.1932C515.951 98.1534 513.098 101.028 511.007 104.818C508.96 108.564 507.936 113.095 507.936 118.409ZM641.362 180.026C631.953 180.026 623.742 177.869 616.729 173.557C609.715 169.244 604.27 163.211 600.393 155.457C596.517 147.704 594.578 138.643 594.578 128.276C594.578 117.865 596.517 108.76 600.393 100.963C604.27 93.1657 609.715 87.1108 616.729 82.7983C623.742 78.4858 631.953 76.3295 641.362 76.3295C650.771 76.3295 658.982 78.4858 665.996 82.7983C673.009 87.1108 678.454 93.1657 682.331 100.963C686.208 108.76 688.146 117.865 688.146 128.276C688.146 138.643 686.208 147.704 682.331 155.457C678.454 163.211 673.009 169.244 665.996 173.557C658.982 177.869 650.771 180.026 641.362 180.026ZM641.428 163.625C647.526 163.625 652.579 162.013 656.587 158.79C660.594 155.566 663.556 151.276 665.473 145.918C667.433 140.56 668.413 134.657 668.413 128.21C668.413 121.807 667.433 115.926 665.473 110.568C663.556 105.167 660.594 100.832 656.587 97.5653C652.579 94.2983 647.526 92.6648 641.428 92.6648C635.286 92.6648 630.189 94.2983 626.138 97.5653C622.13 100.832 619.146 105.167 617.186 110.568C615.269 115.926 614.311 121.807 614.311 128.21C614.311 134.657 615.269 140.56 617.186 145.918C619.146 151.276 622.13 155.566 626.138 158.79C630.189 162.013 635.286 163.625 641.428 163.625ZM709.954 178V77.6364H728.707V93.9716H729.948C732.039 88.4394 735.459 84.1269 740.207 81.0341C744.955 77.8977 750.639 76.3295 757.261 76.3295C763.969 76.3295 769.588 77.8977 774.119 81.0341C778.692 84.1704 782.068 88.4829 784.246 93.9716H785.292C787.688 88.6136 791.499 84.3447 796.727 81.1648C801.954 77.9413 808.183 76.3295 815.414 76.3295C824.518 76.3295 831.945 79.1828 837.695 84.8892C843.489 90.5956 846.386 99.1989 846.386 110.699V178H826.849V112.528C826.849 105.733 824.997 100.811 821.295 97.7614C817.592 94.7121 813.171 93.1875 808.031 93.1875C801.671 93.1875 796.727 95.1477 793.198 99.0682C789.67 102.945 787.906 107.933 787.906 114.031V178H768.434V111.287C768.434 105.842 766.735 101.464 763.337 98.1534C759.94 94.8428 755.518 93.1875 750.073 93.1875C746.371 93.1875 742.951 94.1676 739.815 96.1278C736.722 98.0445 734.217 100.723 732.3 104.165C730.427 107.606 729.491 111.592 729.491 116.122V178H709.954ZM914.847 180.026C905.438 180.026 897.226 177.869 890.213 173.557C883.2 169.244 877.755 163.211 873.878 155.457C870.001 147.704 868.062 138.643 868.062 128.276C868.062 117.865 870.001 108.76 873.878 100.963C877.755 93.1657 883.2 87.1108 890.213 82.7983C897.226 78.4858 905.438 76.3295 914.847 76.3295C924.256 76.3295 932.467 78.4858 939.48 82.7983C946.493 87.1108 951.938 93.1657 955.815 100.963C959.692 108.76 961.631 117.865 961.631 128.276C961.631 138.643 959.692 147.704 955.815 155.457C951.938 163.211 946.493 169.244 939.48 173.557C932.467 177.869 924.256 180.026 914.847 180.026ZM914.912 163.625C921.01 163.625 926.063 162.013 930.071 158.79C934.079 155.566 937.041 151.276 938.957 145.918C940.918 140.56 941.898 134.657 941.898 128.21C941.898 121.807 940.918 115.926 938.957 110.568C937.041 105.167 934.079 100.832 930.071 97.5653C926.063 94.2983 921.01 92.6648 914.912 92.6648C908.77 92.6648 903.673 94.2983 899.622 97.5653C895.615 100.832 892.631 105.167 890.67 110.568C888.754 115.926 887.795 121.807 887.795 128.21C887.795 134.657 888.754 140.56 890.67 145.918C892.631 151.276 895.615 155.566 899.622 158.79C903.673 162.013 908.77 163.625 914.912 163.625ZM983.438 178V77.6364H1002.32V93.5795H1003.37C1005.2 88.178 1008.42 83.9309 1013.04 80.8381C1017.7 77.7017 1022.97 76.1335 1028.85 76.1335C1030.07 76.1335 1031.51 76.1771 1033.16 76.2642C1034.86 76.3513 1036.19 76.4602 1037.15 76.5909V95.2784C1036.36 95.0606 1034.97 94.821 1032.97 94.5597C1030.96 94.2547 1028.96 94.1023 1026.96 94.1023C1022.34 94.1023 1018.22 95.0824 1014.61 97.0426C1011.03 98.9593 1008.2 101.638 1006.11 105.08C1004.02 108.477 1002.98 112.354 1002.98 116.71V178H983.438ZM1054.06 178V77.6364H1073.59V178H1054.06ZM1063.92 62.1506C1060.52 62.1506 1057.61 61.018 1055.17 58.7528C1052.77 56.4441 1051.57 53.6998 1051.57 50.5199C1051.57 47.2964 1052.77 44.5521 1055.17 42.2869C1057.61 39.9782 1060.52 38.8239 1063.92 38.8239C1067.32 38.8239 1070.22 39.9782 1072.61 42.2869C1075.05 44.5521 1076.27 47.2964 1076.27 50.5199C1076.27 53.6998 1075.05 56.4441 1072.61 58.7528C1070.22 61.018 1067.32 62.1506 1063.92 62.1506Z" fill="#1F7551"/>
<path d="M54 167.844L167.844 54" stroke="#1F7551" stroke-width="10" stroke-miterlimit="2.61313" stroke-linecap="round"/>
<path d="M54 124.357L124.357 54" stroke="#1F7551" stroke-width="10" stroke-miterlimit="2.61313" stroke-linecap="round"/>
<path d="M133 176.487L176.487 133" stroke="#1F7551" stroke-width="10" stroke-miterlimit="2.61313" stroke-linecap="round"/>
<path d="M98 168.357L168.357 98" stroke="#1F7551" stroke-width="10" stroke-miterlimit="2.61313" stroke-linecap="round"/>
<path d="M46 89.4871L89.4871 46" stroke="#1F7551" stroke-width="10" stroke-miterlimit="2.61313" stroke-linecap="round"/>
</svg>
